HIERARCHY
ROOT Hips
{
	OFFSET 0.000000 0.000000 0.000000 
	CHANNELS 6 Xposition Yposition Zposition Zrotation Yrotation Xrotation
	JOINT LeftUpLeg
	{
		OFFSET 1.363060 -1.794630 0.839290 
		CHANNELS 3 Zrotation Yrotation Xrotation
		JOINT LeftLeg
		{
			OFFSET 2.448110 -6.726130 0.000000 
			CHANNELS 3 Zrotation Yrotation Xrotation
			JOINT LeftFoot
			{
				OFFSET 2.562200 -7.039590 0.000000 
				CHANNELS 3 Zrotation Yrotation Xrotation
				JOINT LeftToeBase
				{
					OFFSET 0.157640 -0.433110 2.322550 
					CHANNELS 3 Zrotation Yrotation Xrotation
					End Site
					{
						OFFSET 0.000000 0.000000 0.000000 
					}
				}
			}
		}
	}
	JOINT RightUpLeg
	{
		OFFSET -1.305520 -1.794630 0.839290 
		CHANNELS 3 Zrotation Yrotation Xrotation
		JOINT RightLeg
		{
			OFFSET -2.542530 -6.985550 0.000000 
			CHANNELS 3 Zrotation Yrotation Xrotation
			JOINT RightFoot
			{
				OFFSET -2.568260 -7.056230 0.000000 
				CHANNELS 3 Zrotation Yrotation Xrotation
				JOINT RightToeBase
				{
					OFFSET -0.164730 -0.452590 2.363150 
					CHANNELS 3 Zrotation Yrotation Xrotation
					End Site
					{
						OFFSET 0.000000 0.000000 0.000000 
					}
				}
			}
		}
	}
	JOINT Spine
	{
		OFFSET 0.028270 2.035590 -0.193380 
		CHANNELS 3 Zrotation Yrotation Xrotation
		JOINT Spine1
		{
			OFFSET 0.056720 2.048850 -0.042750 
			CHANNELS 3 Zrotation Yrotation Xrotation
			JOINT Neck1
			{
				OFFSET -0.054170 1.746240 0.172020 
				CHANNELS 3 Zrotation Yrotation Xrotation
				JOINT Head
				{
					OFFSET 0.104070 1.761360 -0.123970 
					CHANNELS 3 Zrotation Yrotation Xrotation
					End Site
					{
						OFFSET 0.000000 0.000000 0.000000 
					}
				}
			}
			JOINT LeftArm
			{
				OFFSET 3.362410 1.200890 -0.311210 
				CHANNELS 3 Zrotation Yrotation Xrotation
				JOINT LeftForeArm
				{
					OFFSET 4.983000 -0.000000 -0.000000 
					CHANNELS 3 Zrotation Yrotation Xrotation
					JOINT LeftHand
					{
						OFFSET 3.483560 -0.000000 -0.000000 
						CHANNELS 3 Zrotation Yrotation Xrotation
						JOINT LeftHandIndex1
						{
							OFFSET 0.715260 -0.000000 -0.000000 
							CHANNELS 3 Zrotation Yrotation Xrotation
							End Site
							{
								OFFSET 0.000000 0.000000 0.000000 
							}
						}
					}
				}
			}
			JOINT RightArm
			{
				OFFSET -3.136600 1.374050 -0.404650 
				CHANNELS 3 Zrotation Yrotation Xrotation
				JOINT RightForeArm
				{
					OFFSET -5.241900 -0.000000 -0.000000 
					CHANNELS 3 Zrotation Yrotation Xrotation
					JOINT RightHand
					{
						OFFSET -3.444170 -0.000000 -0.000000 
						CHANNELS 3 Zrotation Yrotation Xrotation
						JOINT RightHandIndex1
						{
							OFFSET -0.622530 -0.000000 -0.000000 
							CHANNELS 3 Zrotation Yrotation Xrotation
							End Site
							{
								OFFSET 0.000000 0.000000 0.000000 
							}
						}
					}
				}
			}
		}
	}
}
MOTION
Frames: 17
Frame Time: 0.041667
16.546073 17.882027 -9.856580 -0.148768 -41.325511 4.019263 -15.948083 -4.440568 -12.458306 0.772692 8.984012 26.944617 0.687052 -2.804112 -6.184736 0.188400 -2.795600 -7.710300 23.065191 5.402967 -10.766404 -2.258778 -9.775018 29.793013 -1.121723 2.973159 -8.318848 -0.144400 -2.448600 6.747200 1.600468 0.886752 0.129701 0.130840 0.393529 -3.963791 6.553831 -5.520202 15.564845 3.913400 -2.826200 12.264500 -83.430417 4.737813 26.937596 15.818163 -22.519107 -3.864427 -0.810513 -2.345900 8.984545 -7.125000 0.000000 0.000000 83.152586 -3.138699 20.133171 -16.271345 24.155796 -3.773210 0.204519 -0.233388 7.043229 7.125000 0.000000 0.000000 
16.542564 17.877415 -9.865303 -0.286619 -41.175268 4.014492 -15.833278 -4.577454 -12.772411 0.942953 9.272330 27.830049 0.685813 -2.818748 -6.187952 0.244400 -3.181400 -8.784200 23.217153 5.016668 -10.793470 -2.253052 -9.751142 29.737188 -1.147702 3.116039 -8.292282 -0.121300 -2.245600 6.184800 1.637297 0.787995 0.135627 0.142162 0.344928 -4.051464 6.583919 -5.405329 15.783072 3.971200 -2.792100 12.324900 -83.496449 4.760662 26.648788 15.894909 -22.621942 -3.898810 -0.837886 -2.338186 9.076218 -7.125000 0.000000 0.000000 83.054324 -3.127766 20.161548 -16.279257 24.159087 -3.775534 0.204057 -0.212740 7.457918 7.125000 0.000000 0.000000 
16.538153 17.875109 -9.871619 -0.370757 -41.006411 4.010872 -15.768143 -4.771344 -13.160393 1.134814 9.587521 28.806982 0.678333 -2.814489 -6.164097 0.315400 -3.610000 -9.982000 23.321622 4.608615 -10.848452 -2.239160 -9.715279 29.641587 -1.166513 3.213550 -8.287120 -0.097600 -2.014500 5.545600 1.664524 0.704793 0.164317 0.142163 0.304535 -4.039624 6.535079 -5.305085 15.974574 3.990500 -2.770500 12.378300 -83.472516 4.705662 26.752711 15.968890 -22.724917 -3.936844 -0.850003 -2.335324 8.856220 -7.125000 0.000000 0.000000 82.903525 -3.027172 20.126423 -16.261409 24.129509 -3.765586 0.207472 -0.191020 8.289685 7.125000 0.000000 0.000000 
16.531636 17.874808 -9.881344 -0.401889 -40.784529 4.018401 -15.714688 -4.930538 -13.667809 1.340388 9.909347 29.815445 0.681405 -2.941880 -5.991846 0.392300 -4.021900 -11.138200 23.402893 4.334986 -10.891997 -2.217707 -9.670008 29.515497 -1.161817 3.180101 -8.310964 -0.089800 -1.932900 5.320300 1.647810 0.696999 0.195533 0.069271 0.303175 -4.014193 6.404680 -5.370810 16.152285 3.919800 -2.811400 12.455400 -83.325205 4.581317 27.031495 16.064749 -22.860849 -3.990524 -0.833683 -2.328948 8.640150 -7.125000 0.000000 0.000000 82.833901 -2.988530 20.550062 -16.328147 24.223243 -3.797028 0.212857 -0.190678 7.796447 7.125000 0.000000 0.000000 
16.514592 17.876011 -9.901597 -0.632912 -41.130183 4.114839 -15.489537 -4.650074 -14.320538 1.581011 10.266023 30.939886 0.692984 -3.124901 -5.768769 0.389500 -4.007700 -11.098400 23.682747 4.604789 -10.639168 -2.186673 -9.604224 29.337780 -1.157340 3.204378 -8.201694 -0.099500 -2.034600 5.601100 1.677078 0.973349 0.223442 0.146169 0.444623 -4.089715 6.322566 -5.452344 16.390248 3.854100 -2.849400 12.555700 -83.213410 4.469424 27.197975 16.134799 -22.958193 -4.031640 -0.799403 -2.318865 8.574712 -7.125000 0.000000 0.000000 82.875254 -3.014470 21.029598 -16.424140 24.355191 -3.843184 0.210855 -0.206353 6.424778 7.125000 0.000000 0.000000 
16.515695 17.876011 -9.904504 -0.839189 -40.805641 4.046184 -15.322871 -5.109624 -14.702977 1.856824 10.660578 32.218951 0.671346 -3.170499 -5.453831 0.399500 -4.058000 -11.239800 23.913965 4.441654 -10.332466 -2.138596 -9.509204 29.068311 -1.117445 3.033269 -8.116540 -0.111400 -2.151700 5.925000 1.704730 0.896189 0.254084 0.047371 0.406409 -4.215280 6.240766 -5.436419 16.543852 3.815400 -2.853500 12.576600 -83.217871 4.410063 27.202185 16.175299 -23.004611 -4.053390 -0.785290 -2.300306 8.683863 -7.125000 0.000000 0.000000 82.880155 -2.961690 21.226059 -16.424479 24.351280 -3.842357 0.215169 -0.210282 5.885006 7.125000 0.000000 0.000000 
16.510180 17.879019 -9.910419 -0.924197 -40.670065 3.951205 -15.241509 -5.345327 -15.283045 2.187445 11.108529 33.695717 0.657959 -3.284291 -5.143739 0.486200 -4.471200 -12.406400 24.073627 4.525909 -9.896662 -2.056583 -9.359327 28.624815 -1.048341 2.735676 -7.962649 -0.135600 -2.373100 6.537800 1.743892 0.875754 0.301835 0.099868 0.400660 -4.255518 6.137772 -5.372527 16.664274 3.793300 -2.850100 12.573600 -83.271074 4.385036 27.184783 16.262958 -23.120329 -4.099196 -0.769930 -2.298969 8.812061 -7.125000 0.000000 0.000000 82.819468 -2.753821 21.137521 -16.302558 24.177307 -3.782629 0.223075 -0.216311 6.055638 7.125000 0.000000 0.000000 
16.499052 17.886639 -9.921047 -1.364388 -40.599114 4.030163 -14.822765 -5.385653 -15.980834 2.562623 11.586229 35.292225 0.663005 -3.608122 -4.567588 0.623100 -5.051500 -14.055600 24.587179 4.580673 -9.351891 -1.961952 -9.178737 28.098440 -0.972343 2.410781 -7.813323 -0.155500 -2.541000 7.003300 1.833697 0.930659 0.364329 0.125639 0.426883 -4.309160 6.135468 -5.331780 16.915562 3.827400 -2.853200 12.658900 -83.345363 4.453391 27.240702 16.459467 -23.388534 -4.202253 -0.768662 -2.302685 8.685257 -7.125000 0.000000 0.000000 82.757697 -2.577994 21.039877 -16.202778 24.035088 -3.735131 0.224485 -0.215610 6.169538 7.125000 0.000000 0.000000 
16.488625 17.893757 -9.927363 -2.214114 -40.463752 4.213965 -14.050809 -5.488000 -16.573861 2.961485 12.064717 36.920848 0.672538 -3.983182 -3.899862 0.955000 -6.222900 -17.432600 25.468122 4.461006 -8.666964 -1.873973 -8.994875 27.577935 -0.917749 2.206652 -7.652019 -0.202100 -2.895000 7.986500 1.963558 1.032223 0.464989 -0.033803 0.468135 -4.361485 6.095146 -5.367022 17.136550 3.827800 -2.890700 12.719300 -83.535745 4.597698 27.032350 16.749028 -23.775730 -4.351646 -0.779333 -2.301153 8.735262 -7.125000 0.000000 0.000000 82.663627 -2.539085 21.113552 -16.222710 24.061324 -3.744160 0.223986 -0.207071 6.139813 7.125000 0.000000 0.000000 
16.480303 17.893857 -9.933479 -2.752034 -40.234582 4.287567 -13.500325 -5.733206 -17.243177 3.368330 12.525669 38.540868 0.672339 -4.431975 -2.980430 1.122800 -6.730900 -18.920400 26.053716 4.168361 -8.208848 -1.794891 -8.826149 27.097330 -0.883941 2.106825 -7.460470 -0.240900 -3.158500 8.720300 2.055005 1.091230 0.549784 -0.125199 0.495383 -4.390548 5.854712 -5.415729 17.339282 3.707600 -2.939300 12.764900 -83.707554 4.680176 26.785489 17.027222 -24.144701 -4.496588 -0.773315 -2.312676 9.022982 -7.125000 0.000000 0.000000 82.589930 -2.429087 21.057212 -16.191938 24.019457 -3.730319 0.220109 -0.206931 6.200949 7.125000 0.000000 0.000000 
16.469074 17.891150 -9.938492 -2.815419 -40.013630 4.223105 -13.326918 -6.042569 -18.010351 3.766099 12.952683 40.099573 0.651771 -4.924059 -1.669966 0.866300 -5.934900 -16.595600 26.189906 3.885315 -7.984078 -1.728095 -8.686790 26.694576 -0.850125 1.990598 -7.286996 -0.245400 -3.187500 8.801200 2.071574 1.112787 0.602544 -0.100884 0.511008 -4.367411 5.729577 -5.466903 17.481940 3.645000 -2.979500 12.783600 -83.673597 4.637454 26.824531 17.216543 -24.399533 -4.602131 -0.709241 -2.342277 8.919368 -7.125000 0.000000 0.000000 82.647022 -2.193238 20.570842 -16.050530 23.830820 -3.667579 0.206500 -0.217714 6.629067 7.125000 0.000000 0.000000 
16.455740 17.892253 -9.940497 -2.780410 -39.813695 4.070064 -13.248577 -6.244119 -18.758555 4.155338 13.351642 41.595986 0.626777 -5.383901 -0.325651 0.588300 -4.910800 -13.654300 26.234906 3.643648 -7.748759 -1.680524 -8.583335 26.402691 -0.802640 1.806979 -7.103242 -0.206800 -2.927900 8.078000 2.068144 1.075086 0.669961 -0.076504 0.495612 -4.303977 5.833003 -5.459038 17.586853 3.723100 -2.986600 12.779100 -83.576691 4.565400 26.855832 17.395729 -24.641569 -4.703884 -0.619014 -2.387898 8.379771 -7.125000 0.000000 0.000000 82.681873 -1.959074 20.431791 -15.964443 23.715407 -3.629260 0.203362 -0.225104 6.844677 7.125000 0.000000 0.000000 
16.444310 17.895963 -9.943405 -2.771331 -39.619765 3.892799 -13.155449 -6.506195 -19.450330 4.542229 13.731349 43.053894 0.607330 -5.784526 0.746815 0.498000 -4.524200 -12.556300 26.308562 3.356639 -7.507420 -1.636067 -8.484023 26.124724 -0.748013 1.597578 -6.882026 -0.124700 -2.276500 6.270400 2.071472 1.077158 0.728388 -0.070009 0.499458 -4.311415 5.904249 -5.446099 17.894720 3.785300 -2.995200 12.885100 -83.529237 4.567788 27.151977 17.528636 -24.821371 -4.780718 -0.631845 -2.379005 7.544784 -7.125000 0.000000 0.000000 82.592736 -1.901128 20.837400 -16.018111 23.780618 -3.650870 0.217119 -0.211529 6.513990 7.125000 0.000000 0.000000 
16.433282 17.897868 -9.949721 -2.949482 -39.509783 3.805309 -12.866974 -6.772885 -20.140505 4.927142 14.093846 44.469974 0.595945 -6.228612 1.811403 0.407700 -4.099200 -11.356000 26.561485 3.132293 -7.211333 -1.591987 -8.382335 25.843233 -0.693782 1.384294 -6.692580 -0.073600 -1.750700 4.817200 2.115220 1.196643 0.795947 -0.052625 0.558748 -4.348002 5.966393 -5.545293 18.245865 3.825700 -3.051900 13.039300 -83.547913 4.572922 27.755483 17.567908 -24.871949 -4.808378 -0.716419 -2.309766 6.508624 -7.125000 0.000000 0.000000 82.475593 -1.871885 21.125410 -16.100364 23.887068 -3.687039 0.221554 -0.194351 6.240738 7.125000 0.000000 0.000000 
16.419145 17.898670 -9.953832 -3.306680 -39.460212 3.813202 -12.414149 -6.941440 -20.842175 5.301716 14.434157 45.816923 0.583662 -6.595657 2.826557 0.341200 -3.753600 -10.384300 26.966850 2.977239 -6.869113 -1.557877 -8.294548 25.609232 -0.674869 1.333783 -6.567886 -0.078000 -1.801400 4.957200 2.155270 1.350671 0.874036 -0.141401 0.635190 -4.358267 5.825170 -5.652573 18.521938 3.733600 -3.109700 13.142600 -83.537779 4.632292 28.056587 17.692579 -25.039513 -4.878520 -0.764493 -2.288427 6.256120 -7.125000 0.000000 0.000000 82.465513 -1.826361 21.276863 -16.145384 23.946066 -3.706553 0.226716 -0.190628 6.116532 7.125000 0.000000 0.000000 
16.403805 17.888945 -9.950523 -3.617056 -39.468772 3.794416 -12.030114 -6.967590 -21.512824 5.639405 14.732542 47.011311 0.580633 -6.925149 3.458217 0.353400 -3.819100 -10.568400 27.309034 2.894277 -6.462803 -1.521320 -8.203059 25.360505 -0.664385 1.315836 -6.475066 -0.083900 -1.867800 5.140500 2.166509 1.487727 0.967602 -0.288302 0.703612 -4.294520 5.738282 -5.716252 18.709913 3.682600 -3.148300 13.183600 -83.479106 4.707924 28.074652 17.931379 -25.360395 -5.010262 -0.738439 -2.336415 6.518365 -7.125000 0.000000 0.000000 82.487686 -1.801252 21.523568 -16.228977 24.060020 -3.744181 0.234661 -0.181900 5.740118 7.125000 0.000000 0.000000 
16.389468 17.878317 -9.943405 -3.787955 -39.520344 3.754552 -11.799951 -6.990500 -22.133748 5.915721 14.972535 47.978496 0.583553 -7.197247 3.664473 0.392000 -4.020200 -11.133600 27.487498 2.834698 -6.065232 -1.469534 -8.083878 25.021168 -0.670877 1.376173 -6.396229 -0.101000 -2.049700 5.643100 2.177505 1.623175 1.063360 -0.363109 0.773168 -4.179419 5.715000 -5.748073 18.830173 3.678400 -3.174700 13.180300 -83.431673 4.780196 28.253076 18.197600 -25.715664 -5.166065 -0.689519 -2.358290 6.433446 -7.125000 0.000000 0.000000 82.474328 -1.697075 21.747699 -16.299392 24.160247 -3.778488 0.232020 -0.170649 5.288216 7.125000 0.000000 0.000000 
